G75*
%MOIN*%
%OFA0B0*%
%FSLAX24Y24*%
%IPPOS*%
%LPD*%
%AMOC8*
5,1,8,0,0,1.08239X$1,22.5*
%
%ADD10R,1.1000X0.6000*%
%ADD11R,0.0780X0.1730*%
%ADD12R,0.1300X0.0474*%
%ADD13R,0.0710X0.0592*%
%ADD14C,0.0600*%
%ADD15C,0.0476*%
D10*
X007680Y003180D03*
D11*
X007680Y013847D03*
X008830Y013847D03*
X006530Y013847D03*
D12*
X005928Y012467D03*
X005928Y010967D03*
X005932Y008393D03*
X005928Y006893D03*
X009432Y006893D03*
X009432Y008393D03*
X009428Y010967D03*
X009432Y012467D03*
D13*
X010180Y013306D03*
X010180Y014054D03*
X005180Y014054D03*
X005180Y013306D03*
D14*
X005180Y009940D02*
X005180Y009420D01*
X004180Y009420D02*
X004180Y009940D01*
X006180Y009940D02*
X006180Y009420D01*
X007180Y009420D02*
X007180Y009940D01*
X008180Y009940D02*
X008180Y009420D01*
X009180Y009420D02*
X009180Y009940D01*
X010180Y009940D02*
X010180Y009420D01*
X011180Y009420D02*
X011180Y009940D01*
D15*
X001180Y001180D03*
X001180Y007680D03*
X006680Y011680D03*
X008680Y011680D03*
X014180Y014180D03*
X014180Y007680D03*
X014180Y001180D03*
X001180Y014180D03*
M02*
