G75*
%MOIN*%
%OFA0B0*%
%FSLAX24Y24*%
%IPPOS*%
%LPD*%
%AMOC8*
5,1,8,0,0,1.08239X$1,22.5*
%
%ADD10C,0.0000*%
%ADD11C,0.0060*%
%ADD12C,0.0030*%
%ADD13C,0.0050*%
%ADD14C,0.0040*%
D10*
X000180Y000180D02*
X000180Y015180D01*
X015180Y015180D01*
X015180Y000180D01*
X000180Y000180D01*
D11*
X003680Y009180D02*
X004580Y009180D01*
X004680Y009280D01*
X004780Y009180D01*
X005580Y009180D01*
X005680Y009280D01*
X005780Y009180D01*
X006580Y009180D01*
X006680Y009280D01*
X006780Y009180D01*
X007580Y009180D01*
X007680Y009280D01*
X007780Y009180D01*
X008580Y009180D01*
X008680Y009280D01*
X008780Y009180D01*
X009580Y009180D01*
X009680Y009280D01*
X009780Y009180D01*
X010580Y009180D01*
X010680Y009280D01*
X010780Y009180D01*
X011680Y009180D01*
X011680Y010180D01*
X010780Y010180D01*
X010680Y010080D01*
X010580Y010180D01*
X009780Y010180D01*
X009680Y010080D01*
X009580Y010180D01*
X008780Y010180D01*
X008680Y010080D01*
X008580Y010180D01*
X007780Y010180D01*
X007680Y010080D01*
X007580Y010180D01*
X006780Y010180D01*
X006680Y010080D01*
X006580Y010180D01*
X005780Y010180D01*
X005680Y010080D01*
X005580Y010180D01*
X004780Y010180D01*
X004680Y010080D01*
X004580Y010180D01*
X003680Y010180D01*
X003680Y009180D01*
X002150Y010210D02*
X001509Y010210D01*
X001830Y010317D02*
X002150Y010637D01*
X002043Y010855D02*
X002150Y010961D01*
X002150Y011175D01*
X002043Y011282D01*
X001616Y011282D01*
X001509Y011175D01*
X001509Y010961D01*
X001616Y010855D01*
X002043Y010855D01*
X001509Y010637D02*
X001936Y010210D01*
X002043Y011499D02*
X002150Y011499D01*
X002043Y011499D02*
X001616Y011926D01*
X001509Y011926D01*
X001509Y011499D01*
X001509Y012144D02*
X001723Y012357D01*
X001509Y012571D01*
X002150Y012571D01*
X002150Y012144D02*
X001509Y012144D01*
D12*
X002733Y011476D02*
X002795Y011476D01*
X002918Y011476D02*
X003165Y011476D01*
X003165Y011537D02*
X003165Y011414D01*
X003165Y011230D02*
X002856Y011230D01*
X002795Y011292D01*
X002918Y011414D02*
X002918Y011476D01*
X002918Y011659D02*
X003165Y011906D01*
X003103Y012089D02*
X003165Y012151D01*
X003103Y012089D02*
X002856Y012089D01*
X002918Y012028D02*
X002918Y012151D01*
X002918Y012273D02*
X003103Y012273D01*
X003165Y012335D01*
X003165Y012520D01*
X002918Y012520D01*
X002918Y012642D02*
X003165Y012642D01*
X003042Y012642D02*
X002918Y012765D01*
X002918Y012827D01*
X002980Y012948D02*
X002918Y013010D01*
X002918Y013134D01*
X002980Y013195D01*
X003042Y013195D01*
X003042Y012948D01*
X003103Y012948D02*
X002980Y012948D01*
X003103Y012948D02*
X003165Y013010D01*
X003165Y013134D01*
X002918Y011906D02*
X003165Y011659D01*
X002980Y011292D02*
X002980Y011168D01*
X002980Y010679D02*
X002980Y010432D01*
X002918Y010432D02*
X002795Y010555D01*
X002918Y010679D01*
X003165Y010679D01*
X003165Y010432D02*
X002918Y010432D01*
X002795Y010310D02*
X003165Y010310D01*
X002795Y010063D01*
X003165Y010063D01*
X003042Y009942D02*
X002795Y009942D01*
X003042Y009942D02*
X003165Y009818D01*
X003042Y009695D01*
X002795Y009695D01*
D13*
X004005Y010305D02*
X004305Y010305D01*
X004155Y010305D02*
X004155Y010755D01*
X004005Y010605D01*
X006680Y010930D02*
X007680Y010930D01*
X007680Y011430D01*
X007930Y011930D01*
X007680Y011930D02*
X007680Y012430D01*
X008680Y012430D01*
X007680Y012430D02*
X006680Y012430D01*
X007680Y010930D02*
X008680Y010930D01*
X011005Y010680D02*
X011005Y010605D01*
X011080Y010530D01*
X011230Y010530D01*
X011305Y010455D01*
X011305Y010380D01*
X011230Y010305D01*
X011080Y010305D01*
X011005Y010380D01*
X011005Y010455D01*
X011080Y010530D01*
X011230Y010530D02*
X011305Y010605D01*
X011305Y010680D01*
X011230Y010755D01*
X011080Y010755D01*
X011005Y010680D01*
X008680Y008430D02*
X007680Y008430D01*
X007680Y007930D01*
X007430Y007430D01*
X007680Y007430D02*
X007680Y006930D01*
X006680Y006930D01*
X007680Y006930D02*
X008680Y006930D01*
X007680Y008430D02*
X006680Y008430D01*
D14*
X004560Y013179D02*
X004100Y013179D01*
X004100Y013409D01*
X004176Y013486D01*
X004330Y013486D01*
X004407Y013409D01*
X004407Y013179D01*
X004407Y013333D02*
X004560Y013486D01*
X004560Y013640D02*
X004560Y013947D01*
X004560Y013793D02*
X004100Y013793D01*
X004253Y013640D01*
X010800Y013530D02*
X010800Y013300D01*
X011260Y013300D01*
X011107Y013300D02*
X011107Y013530D01*
X011030Y013607D01*
X010876Y013607D01*
X010800Y013530D01*
X010876Y013760D02*
X010800Y013837D01*
X010800Y013991D01*
X010876Y014067D01*
X010953Y014067D01*
X011260Y013760D01*
X011260Y014067D01*
X011260Y013607D02*
X011107Y013453D01*
M02*
