G75*
%MOIN*%
%OFA0B0*%
%FSLAX24Y24*%
%IPPOS*%
%LPD*%
%AMOC8*
5,1,8,0,0,1.08239X$1,22.5*
%
%ADD10R,0.0700X0.1650*%
%ADD11R,0.1220X0.0394*%
%ADD12R,0.0630X0.0512*%
%ADD13C,0.0520*%
%ADD14C,0.0396*%
%ADD15C,0.0160*%
D10*
X006530Y013847D03*
X007680Y013847D03*
X008830Y013847D03*
D11*
X009432Y012467D03*
X009428Y010967D03*
X009432Y008393D03*
X009432Y006893D03*
X005928Y006893D03*
X005932Y008393D03*
X005928Y010967D03*
X005928Y012467D03*
D12*
X005180Y013306D03*
X005180Y014054D03*
X010180Y014054D03*
X010180Y013306D03*
D13*
X010180Y009940D02*
X010180Y009420D01*
X011180Y009420D02*
X011180Y009940D01*
X009180Y009940D02*
X009180Y009420D01*
X008180Y009420D02*
X008180Y009940D01*
X007180Y009940D02*
X007180Y009420D01*
X006180Y009420D02*
X006180Y009940D01*
X005180Y009940D02*
X005180Y009420D01*
X004180Y009420D02*
X004180Y009940D01*
D14*
X006680Y011680D03*
X008680Y011680D03*
X014180Y014180D03*
X014180Y007680D03*
X014180Y001180D03*
X001180Y001180D03*
X001180Y007680D03*
X001180Y014180D03*
D15*
X000660Y014700D02*
X000660Y000660D01*
X004592Y000660D01*
X007420Y007730D01*
X007420Y008133D01*
X006722Y008133D01*
X006722Y008121D01*
X006617Y008016D01*
X005247Y008016D01*
X005142Y008121D01*
X005142Y008664D01*
X005247Y008769D01*
X006617Y008769D01*
X006722Y008664D01*
X006722Y008653D01*
X007420Y008653D01*
X007420Y009051D01*
X007411Y009044D01*
X007349Y009012D01*
X007283Y008991D01*
X007215Y008980D01*
X007180Y008980D01*
X007180Y009680D01*
X007180Y009680D01*
X007180Y010380D01*
X007215Y010380D01*
X007283Y010369D01*
X007349Y010348D01*
X007411Y010316D01*
X007420Y010309D01*
X007420Y010707D01*
X006718Y010707D01*
X006718Y010696D01*
X006613Y010591D01*
X005243Y010591D01*
X005138Y010696D01*
X005138Y011239D01*
X005243Y011344D01*
X006503Y011344D01*
X006466Y011359D01*
X006359Y011466D01*
X006302Y011605D01*
X006302Y011699D01*
X005928Y012091D01*
X005243Y012091D01*
X005138Y012196D01*
X005138Y012739D01*
X005243Y012844D01*
X005243Y012844D01*
X005220Y012870D01*
X004790Y012870D01*
X004685Y012976D01*
X004685Y013636D01*
X004729Y013680D01*
X004721Y013688D01*
X004697Y013729D01*
X004685Y013774D01*
X004685Y014006D01*
X005132Y014006D01*
X005132Y014102D01*
X004685Y014102D01*
X004685Y014334D01*
X004697Y014379D01*
X004721Y014420D01*
X004755Y014454D01*
X004796Y014478D01*
X004841Y014490D01*
X005132Y014490D01*
X005132Y014102D01*
X005228Y014102D01*
X005675Y014102D01*
X005675Y014334D01*
X005663Y014379D01*
X005639Y014420D01*
X005605Y014454D01*
X005564Y014478D01*
X005519Y014490D01*
X005228Y014490D01*
X005228Y014102D01*
X005228Y014006D01*
X005675Y014006D01*
X005675Y013774D01*
X005663Y013729D01*
X005639Y013688D01*
X005631Y013680D01*
X005675Y013636D01*
X005675Y013142D01*
X005940Y012844D01*
X006149Y012844D01*
X006111Y012854D01*
X006069Y012878D01*
X006036Y012912D01*
X006012Y012953D01*
X006000Y012998D01*
X006000Y013767D01*
X006450Y013767D01*
X006450Y013927D01*
X006000Y013927D01*
X006000Y014696D01*
X006001Y014700D01*
X000660Y014700D01*
X000660Y014604D02*
X006000Y014604D01*
X006000Y014445D02*
X005614Y014445D01*
X005675Y014287D02*
X006000Y014287D01*
X006000Y014128D02*
X005675Y014128D01*
X005675Y013970D02*
X006000Y013970D01*
X006000Y013653D02*
X005659Y013653D01*
X005675Y013811D02*
X006450Y013811D01*
X006610Y013811D02*
X007150Y013811D01*
X007060Y013767D02*
X006610Y013767D01*
X006610Y013927D01*
X007060Y013927D01*
X007060Y014696D01*
X007059Y014700D01*
X007150Y014700D01*
X007150Y012948D01*
X007255Y012842D01*
X007420Y012842D01*
X007420Y011227D01*
X006718Y011227D01*
X006718Y011239D01*
X006655Y011302D01*
X006755Y011302D01*
X006894Y011359D01*
X007001Y011466D01*
X007058Y011605D01*
X007058Y011755D01*
X007001Y011894D01*
X006894Y012001D01*
X006755Y012058D01*
X006678Y012058D01*
X006631Y012108D01*
X006718Y012196D01*
X006718Y012739D01*
X006615Y012842D01*
X006904Y012842D01*
X006949Y012854D01*
X006991Y012878D01*
X007024Y012912D01*
X007048Y012953D01*
X007060Y012998D01*
X007060Y013767D01*
X007060Y013653D02*
X007150Y013653D01*
X007150Y013494D02*
X007060Y013494D01*
X007060Y013336D02*
X007150Y013336D01*
X007150Y013177D02*
X007060Y013177D01*
X007060Y013019D02*
X007150Y013019D01*
X007238Y012860D02*
X006959Y012860D01*
X006718Y012702D02*
X007420Y012702D01*
X007420Y012543D02*
X006718Y012543D01*
X006718Y012385D02*
X007420Y012385D01*
X007420Y012226D02*
X006718Y012226D01*
X006669Y012068D02*
X007420Y012068D01*
X007420Y011909D02*
X006986Y011909D01*
X007058Y011751D02*
X007420Y011751D01*
X007420Y011592D02*
X007053Y011592D01*
X006968Y011434D02*
X007420Y011434D01*
X007420Y011275D02*
X006682Y011275D01*
X006392Y011434D02*
X000660Y011434D01*
X000660Y011592D02*
X006307Y011592D01*
X006253Y011751D02*
X000660Y011751D01*
X000660Y011909D02*
X006102Y011909D01*
X005950Y012068D02*
X000660Y012068D01*
X000660Y012226D02*
X005138Y012226D01*
X005138Y012385D02*
X000660Y012385D01*
X000660Y012543D02*
X005138Y012543D01*
X005138Y012702D02*
X000660Y012702D01*
X000660Y012860D02*
X005229Y012860D01*
X005675Y013177D02*
X006000Y013177D01*
X006000Y013019D02*
X005785Y013019D01*
X005926Y012860D02*
X006101Y012860D01*
X005928Y012467D02*
X006680Y011680D01*
X005928Y010967D02*
X007680Y010967D01*
X007680Y009680D01*
X008180Y009680D01*
X008620Y009690D02*
X008740Y009690D01*
X008740Y009532D02*
X008620Y009532D01*
X008620Y009373D02*
X008740Y009373D01*
X008740Y009332D02*
X008807Y009171D01*
X008931Y009047D01*
X009092Y008980D01*
X009268Y008980D01*
X009429Y009047D01*
X009553Y009171D01*
X009620Y009332D01*
X009620Y009420D01*
X009740Y009420D01*
X009740Y009332D01*
X009807Y009171D01*
X009931Y009047D01*
X010092Y008980D01*
X010268Y008980D01*
X010429Y009047D01*
X010553Y009171D01*
X010620Y009332D01*
X010620Y010028D01*
X010553Y010189D01*
X010429Y010313D01*
X010268Y010380D01*
X010092Y010380D01*
X009931Y010313D01*
X009807Y010189D01*
X009740Y010028D01*
X009740Y009940D01*
X009620Y009940D01*
X009620Y010028D01*
X009553Y010189D01*
X009429Y010313D01*
X009268Y010380D01*
X009092Y010380D01*
X008931Y010313D01*
X008807Y010189D01*
X008740Y010028D01*
X008740Y009332D01*
X008620Y009332D02*
X008620Y010028D01*
X008553Y010189D01*
X008429Y010313D01*
X008268Y010380D01*
X008092Y010380D01*
X007940Y010317D01*
X007940Y010707D01*
X008638Y010707D01*
X008638Y010696D01*
X008743Y010591D01*
X010113Y010591D01*
X010218Y010696D01*
X010218Y011239D01*
X010113Y011344D01*
X008857Y011344D01*
X008894Y011359D01*
X009001Y011466D01*
X009058Y011605D01*
X009058Y011699D01*
X009432Y012091D01*
X010117Y012091D01*
X010222Y012196D01*
X010222Y012739D01*
X010117Y012844D01*
X010117Y012844D01*
X010140Y012870D01*
X010570Y012870D01*
X010675Y012976D01*
X010675Y013636D01*
X010631Y013680D01*
X010639Y013688D01*
X010663Y013729D01*
X010675Y013774D01*
X010675Y014006D01*
X010228Y014006D01*
X010228Y014102D01*
X010675Y014102D01*
X010675Y014334D01*
X010663Y014379D01*
X010639Y014420D01*
X010605Y014454D01*
X010564Y014478D01*
X010519Y014490D01*
X010228Y014490D01*
X010228Y014102D01*
X010132Y014102D01*
X010132Y014006D01*
X009685Y014006D01*
X009685Y013774D01*
X009697Y013729D01*
X009721Y013688D01*
X009729Y013680D01*
X009685Y013636D01*
X009685Y013142D01*
X009420Y012844D01*
X009211Y012844D01*
X009249Y012854D01*
X009291Y012878D01*
X009324Y012912D01*
X009348Y012953D01*
X009360Y012998D01*
X009360Y013767D01*
X008910Y013767D01*
X008910Y013927D01*
X009360Y013927D01*
X009360Y014696D01*
X009359Y014700D01*
X014700Y014700D01*
X014700Y000660D01*
X010768Y000660D01*
X007940Y007730D01*
X007940Y008133D01*
X008642Y008133D01*
X008642Y008121D01*
X008747Y008016D01*
X010117Y008016D01*
X010222Y008121D01*
X010222Y008664D01*
X010117Y008769D01*
X008747Y008769D01*
X008642Y008664D01*
X008642Y008653D01*
X007940Y008653D01*
X007940Y009043D01*
X008092Y008980D01*
X008268Y008980D01*
X008429Y009047D01*
X008553Y009171D01*
X008620Y009332D01*
X008571Y009215D02*
X008789Y009215D01*
X008922Y009056D02*
X008438Y009056D01*
X008717Y008739D02*
X007940Y008739D01*
X007940Y008898D02*
X014700Y008898D01*
X014700Y009056D02*
X011428Y009056D01*
X011411Y009044D02*
X011467Y009084D01*
X011516Y009133D01*
X011556Y009189D01*
X011588Y009251D01*
X011609Y009317D01*
X011620Y009385D01*
X011620Y009680D01*
X011620Y009975D01*
X011609Y010043D01*
X011588Y010109D01*
X011556Y010171D01*
X011516Y010227D01*
X011467Y010276D01*
X011411Y010316D01*
X011349Y010348D01*
X011283Y010369D01*
X011215Y010380D01*
X011180Y010380D01*
X011180Y009680D01*
X011620Y009680D01*
X011180Y009680D01*
X011180Y009680D01*
X011180Y009680D01*
X011180Y008980D01*
X011215Y008980D01*
X011283Y008991D01*
X011349Y009012D01*
X011411Y009044D01*
X011569Y009215D02*
X014700Y009215D01*
X014700Y009373D02*
X011618Y009373D01*
X011620Y009532D02*
X014700Y009532D01*
X014700Y009690D02*
X011620Y009690D01*
X011620Y009849D02*
X014700Y009849D01*
X014700Y010007D02*
X011615Y010007D01*
X011559Y010166D02*
X014700Y010166D01*
X014700Y010324D02*
X011396Y010324D01*
X011180Y010324D02*
X011180Y010324D01*
X011180Y010380D02*
X011145Y010380D01*
X011077Y010369D01*
X011011Y010348D01*
X010949Y010316D01*
X010893Y010276D01*
X010844Y010227D01*
X010804Y010171D01*
X010772Y010109D01*
X010751Y010043D01*
X010740Y009975D01*
X010740Y009680D01*
X011180Y009680D01*
X011180Y009680D01*
X011180Y009680D01*
X011180Y010380D01*
X011180Y010166D02*
X011180Y010166D01*
X011180Y010007D02*
X011180Y010007D01*
X011180Y009849D02*
X011180Y009849D01*
X011180Y009690D02*
X011180Y009690D01*
X011180Y009680D02*
X010740Y009680D01*
X010740Y009385D01*
X010751Y009317D01*
X010772Y009251D01*
X010804Y009189D01*
X010844Y009133D01*
X010893Y009084D01*
X010949Y009044D01*
X011011Y009012D01*
X011077Y008991D01*
X011145Y008980D01*
X011180Y008980D01*
X011180Y009680D01*
X011180Y009532D02*
X011180Y009532D01*
X011180Y009373D02*
X011180Y009373D01*
X011180Y009215D02*
X011180Y009215D01*
X011180Y009056D02*
X011180Y009056D01*
X010932Y009056D02*
X010438Y009056D01*
X010571Y009215D02*
X010791Y009215D01*
X010742Y009373D02*
X010620Y009373D01*
X010620Y009532D02*
X010740Y009532D01*
X010740Y009690D02*
X010620Y009690D01*
X010620Y009849D02*
X010740Y009849D01*
X010745Y010007D02*
X010620Y010007D01*
X010563Y010166D02*
X010801Y010166D01*
X010964Y010324D02*
X010403Y010324D01*
X010163Y010641D02*
X014700Y010641D01*
X014700Y010483D02*
X007940Y010483D01*
X007940Y010641D02*
X008693Y010641D01*
X008957Y010324D02*
X008403Y010324D01*
X008563Y010166D02*
X008797Y010166D01*
X008740Y010007D02*
X008620Y010007D01*
X008620Y009849D02*
X008740Y009849D01*
X009180Y009680D02*
X010180Y009680D01*
X009740Y009373D02*
X009620Y009373D01*
X009571Y009215D02*
X009789Y009215D01*
X009922Y009056D02*
X009438Y009056D01*
X009432Y008393D02*
X007680Y008393D01*
X007680Y009680D01*
X007180Y009680D02*
X007180Y009680D01*
X007180Y009680D01*
X006740Y009680D01*
X006740Y009975D01*
X006751Y010043D01*
X006772Y010109D01*
X006804Y010171D01*
X006844Y010227D01*
X006893Y010276D01*
X006949Y010316D01*
X007011Y010348D01*
X007077Y010369D01*
X007145Y010380D01*
X007180Y010380D01*
X007180Y009680D01*
X007180Y008980D01*
X007145Y008980D01*
X007077Y008991D01*
X007011Y009012D01*
X006949Y009044D01*
X006893Y009084D01*
X006844Y009133D01*
X006804Y009189D01*
X006772Y009251D01*
X006751Y009317D01*
X006740Y009385D01*
X006740Y009680D01*
X007180Y009680D01*
X007180Y009690D02*
X007180Y009690D01*
X007180Y009532D02*
X007180Y009532D01*
X007180Y009373D02*
X007180Y009373D01*
X007180Y009215D02*
X007180Y009215D01*
X007180Y009056D02*
X007180Y009056D01*
X006932Y009056D02*
X006438Y009056D01*
X006429Y009047D02*
X006553Y009171D01*
X006620Y009332D01*
X006620Y010028D01*
X006553Y010189D01*
X006429Y010313D01*
X006268Y010380D01*
X006092Y010380D01*
X005931Y010313D01*
X005807Y010189D01*
X005740Y010028D01*
X005740Y009940D01*
X005620Y009940D01*
X005620Y010028D01*
X005553Y010189D01*
X005429Y010313D01*
X005268Y010380D01*
X005092Y010380D01*
X004931Y010313D01*
X004807Y010189D01*
X004740Y010028D01*
X004740Y009332D01*
X004807Y009171D01*
X004931Y009047D01*
X005092Y008980D01*
X005268Y008980D01*
X005429Y009047D01*
X005553Y009171D01*
X005620Y009332D01*
X005620Y009420D01*
X005740Y009420D01*
X005740Y009332D01*
X005807Y009171D01*
X005931Y009047D01*
X006092Y008980D01*
X006268Y008980D01*
X006429Y009047D01*
X006571Y009215D02*
X006791Y009215D01*
X006742Y009373D02*
X006620Y009373D01*
X006620Y009532D02*
X006740Y009532D01*
X006740Y009690D02*
X006620Y009690D01*
X006620Y009849D02*
X006740Y009849D01*
X006745Y010007D02*
X006620Y010007D01*
X006563Y010166D02*
X006801Y010166D01*
X006964Y010324D02*
X006403Y010324D01*
X006663Y010641D02*
X007420Y010641D01*
X007420Y010483D02*
X000660Y010483D01*
X000660Y010641D02*
X005193Y010641D01*
X005138Y010800D02*
X000660Y010800D01*
X000660Y010958D02*
X005138Y010958D01*
X005138Y011117D02*
X000660Y011117D01*
X000660Y011275D02*
X005174Y011275D01*
X004957Y010324D02*
X004396Y010324D01*
X004411Y010316D02*
X004349Y010348D01*
X004283Y010369D01*
X004215Y010380D01*
X004180Y010380D01*
X004180Y009680D01*
X004620Y009680D01*
X004620Y009975D01*
X004609Y010043D01*
X004588Y010109D01*
X004556Y010171D01*
X004516Y010227D01*
X004467Y010276D01*
X004411Y010316D01*
X004559Y010166D02*
X004797Y010166D01*
X004740Y010007D02*
X004615Y010007D01*
X004620Y009849D02*
X004740Y009849D01*
X004740Y009690D02*
X004620Y009690D01*
X004620Y009680D02*
X004180Y009680D01*
X004180Y009680D01*
X004180Y009680D01*
X004180Y008980D01*
X004215Y008980D01*
X004283Y008991D01*
X004349Y009012D01*
X004411Y009044D01*
X004467Y009084D01*
X004516Y009133D01*
X004556Y009189D01*
X004588Y009251D01*
X004609Y009317D01*
X004620Y009385D01*
X004620Y009680D01*
X004620Y009532D02*
X004740Y009532D01*
X004740Y009373D02*
X004618Y009373D01*
X004569Y009215D02*
X004789Y009215D01*
X004922Y009056D02*
X004428Y009056D01*
X004180Y009056D02*
X004180Y009056D01*
X004180Y008980D02*
X004180Y009680D01*
X004180Y009680D01*
X004180Y009680D01*
X003740Y009680D01*
X003740Y009975D01*
X003751Y010043D01*
X003772Y010109D01*
X003804Y010171D01*
X003844Y010227D01*
X003893Y010276D01*
X003949Y010316D01*
X004011Y010348D01*
X004077Y010369D01*
X004145Y010380D01*
X004180Y010380D01*
X004180Y009680D01*
X003740Y009680D01*
X003740Y009385D01*
X003751Y009317D01*
X003772Y009251D01*
X003804Y009189D01*
X003844Y009133D01*
X003893Y009084D01*
X003949Y009044D01*
X004011Y009012D01*
X004077Y008991D01*
X004145Y008980D01*
X004180Y008980D01*
X004180Y009215D02*
X004180Y009215D01*
X004180Y009373D02*
X004180Y009373D01*
X004180Y009532D02*
X004180Y009532D01*
X004180Y009690D02*
X004180Y009690D01*
X004180Y009849D02*
X004180Y009849D01*
X004180Y010007D02*
X004180Y010007D01*
X004180Y010166D02*
X004180Y010166D01*
X004180Y010324D02*
X004180Y010324D01*
X003964Y010324D02*
X000660Y010324D01*
X000660Y010166D02*
X003801Y010166D01*
X003745Y010007D02*
X000660Y010007D01*
X000660Y009849D02*
X003740Y009849D01*
X003740Y009690D02*
X000660Y009690D01*
X000660Y009532D02*
X003740Y009532D01*
X003742Y009373D02*
X000660Y009373D01*
X000660Y009215D02*
X003791Y009215D01*
X003932Y009056D02*
X000660Y009056D01*
X000660Y008898D02*
X007420Y008898D01*
X007420Y008739D02*
X006647Y008739D01*
X006706Y008105D02*
X007420Y008105D01*
X007420Y007947D02*
X000660Y007947D01*
X000660Y008105D02*
X005158Y008105D01*
X005142Y008264D02*
X000660Y008264D01*
X000660Y008422D02*
X005142Y008422D01*
X005142Y008581D02*
X000660Y008581D01*
X000660Y008739D02*
X005217Y008739D01*
X005438Y009056D02*
X005922Y009056D01*
X005789Y009215D02*
X005571Y009215D01*
X005620Y009373D02*
X005740Y009373D01*
X006180Y009680D02*
X005180Y009680D01*
X005620Y010007D02*
X005740Y010007D01*
X005797Y010166D02*
X005563Y010166D01*
X005403Y010324D02*
X005957Y010324D01*
X007180Y010324D02*
X007180Y010324D01*
X007180Y010166D02*
X007180Y010166D01*
X007180Y010007D02*
X007180Y010007D01*
X007180Y009849D02*
X007180Y009849D01*
X007396Y010324D02*
X007420Y010324D01*
X007940Y010324D02*
X007957Y010324D01*
X007680Y010967D02*
X009428Y010967D01*
X008968Y011434D02*
X014700Y011434D01*
X014700Y011592D02*
X009053Y011592D01*
X009107Y011751D02*
X014700Y011751D01*
X014700Y011909D02*
X009258Y011909D01*
X009410Y012068D02*
X014700Y012068D01*
X014700Y012226D02*
X010222Y012226D01*
X010222Y012385D02*
X014700Y012385D01*
X014700Y012543D02*
X010222Y012543D01*
X010222Y012702D02*
X014700Y012702D01*
X014700Y012860D02*
X010131Y012860D01*
X009685Y013177D02*
X009360Y013177D01*
X009360Y013019D02*
X009575Y013019D01*
X009434Y012860D02*
X009259Y012860D01*
X009432Y012467D02*
X008680Y011680D01*
X008682Y012058D02*
X008605Y012058D01*
X008466Y012001D01*
X008359Y011894D01*
X008302Y011755D01*
X008302Y011605D01*
X008359Y011466D01*
X008466Y011359D01*
X008605Y011302D01*
X008701Y011302D01*
X008638Y011239D01*
X008638Y011227D01*
X007940Y011227D01*
X007940Y012842D01*
X008105Y012842D01*
X008210Y012948D01*
X008210Y014700D01*
X008301Y014700D01*
X008300Y014696D01*
X008300Y013927D01*
X008750Y013927D01*
X008750Y013767D01*
X008300Y013767D01*
X008300Y012998D01*
X008312Y012953D01*
X008336Y012912D01*
X008369Y012878D01*
X008411Y012854D01*
X008456Y012842D01*
X008745Y012842D01*
X008642Y012739D01*
X008642Y012196D01*
X008729Y012108D01*
X008682Y012058D01*
X008691Y012068D02*
X007940Y012068D01*
X007940Y012226D02*
X008642Y012226D01*
X008642Y012385D02*
X007940Y012385D01*
X007940Y012543D02*
X008642Y012543D01*
X008642Y012702D02*
X007940Y012702D01*
X008122Y012860D02*
X008401Y012860D01*
X008300Y013019D02*
X008210Y013019D01*
X008210Y013177D02*
X008300Y013177D01*
X008300Y013336D02*
X008210Y013336D01*
X008210Y013494D02*
X008300Y013494D01*
X008300Y013653D02*
X008210Y013653D01*
X008210Y013811D02*
X008750Y013811D01*
X008910Y013811D02*
X009685Y013811D01*
X009685Y013970D02*
X009360Y013970D01*
X009360Y014128D02*
X009685Y014128D01*
X009685Y014102D02*
X010132Y014102D01*
X010132Y014490D01*
X009841Y014490D01*
X009796Y014478D01*
X009755Y014454D01*
X009721Y014420D01*
X009697Y014379D01*
X009685Y014334D01*
X009685Y014102D01*
X009685Y014287D02*
X009360Y014287D01*
X009360Y014445D02*
X009746Y014445D01*
X010132Y014445D02*
X010228Y014445D01*
X010228Y014287D02*
X010132Y014287D01*
X010132Y014128D02*
X010228Y014128D01*
X010675Y014128D02*
X014700Y014128D01*
X014700Y013970D02*
X010675Y013970D01*
X010675Y013811D02*
X014700Y013811D01*
X014700Y013653D02*
X010659Y013653D01*
X010675Y013494D02*
X014700Y013494D01*
X014700Y013336D02*
X010675Y013336D01*
X010675Y013177D02*
X014700Y013177D01*
X014700Y013019D02*
X010675Y013019D01*
X010180Y013306D02*
X009432Y012467D01*
X009360Y013336D02*
X009685Y013336D01*
X009685Y013494D02*
X009360Y013494D01*
X009360Y013653D02*
X009701Y013653D01*
X010675Y014287D02*
X014700Y014287D01*
X014700Y014445D02*
X010614Y014445D01*
X009360Y014604D02*
X014700Y014604D01*
X014700Y011275D02*
X010182Y011275D01*
X010218Y011117D02*
X014700Y011117D01*
X014700Y010958D02*
X010218Y010958D01*
X010218Y010800D02*
X014700Y010800D01*
X014700Y008739D02*
X010147Y008739D01*
X010222Y008581D02*
X014700Y008581D01*
X014700Y008422D02*
X010222Y008422D01*
X010222Y008264D02*
X014700Y008264D01*
X014700Y008105D02*
X010206Y008105D01*
X010066Y007269D02*
X009450Y007269D01*
X009450Y006911D01*
X009414Y006911D01*
X009414Y007269D01*
X008798Y007269D01*
X008752Y007257D01*
X008711Y007233D01*
X008678Y007200D01*
X008654Y007159D01*
X008642Y007113D01*
X008642Y006911D01*
X009414Y006911D01*
X009414Y006874D01*
X009450Y006874D01*
X009450Y006516D01*
X010066Y006516D01*
X010112Y006528D01*
X010153Y006552D01*
X010186Y006585D01*
X010210Y006626D01*
X010222Y006672D01*
X010222Y006874D01*
X009450Y006874D01*
X009450Y006911D01*
X010222Y006911D01*
X010222Y007113D01*
X010210Y007159D01*
X010186Y007200D01*
X010153Y007233D01*
X010112Y007257D01*
X010066Y007269D01*
X010211Y007154D02*
X014700Y007154D01*
X014700Y006996D02*
X010222Y006996D01*
X010222Y006837D02*
X014700Y006837D01*
X014700Y006679D02*
X010222Y006679D01*
X010082Y006520D02*
X014700Y006520D01*
X014700Y006362D02*
X008487Y006362D01*
X008424Y006520D02*
X008782Y006520D01*
X008798Y006516D02*
X009414Y006516D01*
X009414Y006874D01*
X008642Y006874D01*
X008642Y006672D01*
X008654Y006626D01*
X008678Y006585D01*
X008711Y006552D01*
X008752Y006528D01*
X008798Y006516D01*
X008642Y006679D02*
X008361Y006679D01*
X008297Y006837D02*
X008642Y006837D01*
X008642Y006996D02*
X008234Y006996D01*
X008170Y007154D02*
X008653Y007154D01*
X008107Y007313D02*
X014700Y007313D01*
X014700Y007471D02*
X008044Y007471D01*
X007980Y007630D02*
X014700Y007630D01*
X014700Y007788D02*
X007940Y007788D01*
X007940Y007947D02*
X014700Y007947D01*
X014700Y006203D02*
X008551Y006203D01*
X008614Y006045D02*
X014700Y006045D01*
X014700Y005886D02*
X008678Y005886D01*
X008741Y005728D02*
X014700Y005728D01*
X014700Y005569D02*
X008804Y005569D01*
X008868Y005411D02*
X014700Y005411D01*
X014700Y005252D02*
X008931Y005252D01*
X008995Y005094D02*
X014700Y005094D01*
X014700Y004935D02*
X009058Y004935D01*
X009121Y004777D02*
X014700Y004777D01*
X014700Y004618D02*
X009185Y004618D01*
X009248Y004460D02*
X014700Y004460D01*
X014700Y004301D02*
X009312Y004301D01*
X009375Y004143D02*
X014700Y004143D01*
X014700Y003984D02*
X009438Y003984D01*
X009502Y003826D02*
X014700Y003826D01*
X014700Y003667D02*
X009565Y003667D01*
X009629Y003509D02*
X014700Y003509D01*
X014700Y003350D02*
X009692Y003350D01*
X009755Y003192D02*
X014700Y003192D01*
X014700Y003033D02*
X009819Y003033D01*
X009882Y002875D02*
X014700Y002875D01*
X014700Y002716D02*
X009946Y002716D01*
X010009Y002558D02*
X014700Y002558D01*
X014700Y002399D02*
X010072Y002399D01*
X010136Y002241D02*
X014700Y002241D01*
X014700Y002082D02*
X010199Y002082D01*
X010263Y001924D02*
X014700Y001924D01*
X014700Y001765D02*
X010326Y001765D01*
X010389Y001607D02*
X014700Y001607D01*
X014700Y001448D02*
X010453Y001448D01*
X010516Y001290D02*
X014700Y001290D01*
X014700Y001131D02*
X010580Y001131D01*
X010643Y000973D02*
X014700Y000973D01*
X014700Y000814D02*
X010706Y000814D01*
X010488Y000660D02*
X004872Y000660D01*
X007680Y007680D01*
X010488Y000660D01*
X010426Y000814D02*
X004934Y000814D01*
X004997Y000973D02*
X010363Y000973D01*
X010300Y001131D02*
X005060Y001131D01*
X005124Y001290D02*
X010236Y001290D01*
X010173Y001448D02*
X005187Y001448D01*
X005251Y001607D02*
X010109Y001607D01*
X010046Y001765D02*
X005314Y001765D01*
X005377Y001924D02*
X009983Y001924D01*
X009919Y002082D02*
X005441Y002082D01*
X005504Y002241D02*
X009856Y002241D01*
X009792Y002399D02*
X005568Y002399D01*
X005631Y002558D02*
X009729Y002558D01*
X009666Y002716D02*
X005694Y002716D01*
X005758Y002875D02*
X009602Y002875D01*
X009539Y003033D02*
X005821Y003033D01*
X005885Y003192D02*
X009475Y003192D01*
X009412Y003350D02*
X005948Y003350D01*
X006011Y003509D02*
X009349Y003509D01*
X009285Y003667D02*
X006075Y003667D01*
X006138Y003826D02*
X009222Y003826D01*
X009158Y003984D02*
X006202Y003984D01*
X006265Y004143D02*
X009095Y004143D01*
X009032Y004301D02*
X006328Y004301D01*
X006392Y004460D02*
X008968Y004460D01*
X008905Y004618D02*
X006455Y004618D01*
X006519Y004777D02*
X008841Y004777D01*
X008778Y004935D02*
X006582Y004935D01*
X006645Y005094D02*
X008715Y005094D01*
X008651Y005252D02*
X006709Y005252D01*
X006772Y005411D02*
X008588Y005411D01*
X008524Y005569D02*
X006836Y005569D01*
X006899Y005728D02*
X008461Y005728D01*
X008398Y005886D02*
X006962Y005886D01*
X007026Y006045D02*
X008334Y006045D01*
X008271Y006203D02*
X007089Y006203D01*
X007153Y006362D02*
X008207Y006362D01*
X008144Y006520D02*
X007216Y006520D01*
X007279Y006679D02*
X008081Y006679D01*
X008017Y006837D02*
X007343Y006837D01*
X007406Y006996D02*
X007954Y006996D01*
X007890Y007154D02*
X007470Y007154D01*
X007533Y007313D02*
X007827Y007313D01*
X007764Y007471D02*
X007596Y007471D01*
X007660Y007630D02*
X007700Y007630D01*
X007380Y007630D02*
X000660Y007630D01*
X000660Y007788D02*
X007420Y007788D01*
X007316Y007471D02*
X000660Y007471D01*
X000660Y007313D02*
X007253Y007313D01*
X007190Y007154D02*
X006707Y007154D01*
X006706Y007159D02*
X006682Y007200D01*
X006649Y007233D01*
X006608Y007257D01*
X006562Y007269D01*
X005946Y007269D01*
X005946Y006911D01*
X005910Y006911D01*
X005910Y007269D01*
X005294Y007269D01*
X005248Y007257D01*
X005207Y007233D01*
X005174Y007200D01*
X005150Y007159D01*
X005138Y007113D01*
X005138Y006911D01*
X005910Y006911D01*
X005910Y006874D01*
X005946Y006874D01*
X005946Y006516D01*
X006562Y006516D01*
X006608Y006528D01*
X006649Y006552D01*
X006682Y006585D01*
X006706Y006626D01*
X006718Y006672D01*
X006718Y006874D01*
X005946Y006874D01*
X005946Y006911D01*
X006718Y006911D01*
X006718Y007113D01*
X006706Y007159D01*
X006718Y006996D02*
X007126Y006996D01*
X007063Y006837D02*
X006718Y006837D01*
X006718Y006679D02*
X006999Y006679D01*
X006936Y006520D02*
X006578Y006520D01*
X006873Y006362D02*
X000660Y006362D01*
X000660Y006520D02*
X005278Y006520D01*
X005294Y006516D02*
X005910Y006516D01*
X005910Y006874D01*
X005138Y006874D01*
X005138Y006672D01*
X005150Y006626D01*
X005174Y006585D01*
X005207Y006552D01*
X005248Y006528D01*
X005294Y006516D01*
X005138Y006679D02*
X000660Y006679D01*
X000660Y006837D02*
X005138Y006837D01*
X005138Y006996D02*
X000660Y006996D01*
X000660Y007154D02*
X005149Y007154D01*
X005910Y007154D02*
X005946Y007154D01*
X005946Y006996D02*
X005910Y006996D01*
X005910Y006837D02*
X005946Y006837D01*
X005946Y006679D02*
X005910Y006679D01*
X005910Y006520D02*
X005946Y006520D01*
X006746Y006045D02*
X000660Y006045D01*
X000660Y006203D02*
X006809Y006203D01*
X006682Y005886D02*
X000660Y005886D01*
X000660Y005728D02*
X006619Y005728D01*
X006556Y005569D02*
X000660Y005569D01*
X000660Y005411D02*
X006492Y005411D01*
X006429Y005252D02*
X000660Y005252D01*
X000660Y005094D02*
X006365Y005094D01*
X006302Y004935D02*
X000660Y004935D01*
X000660Y004777D02*
X006239Y004777D01*
X006175Y004618D02*
X000660Y004618D01*
X000660Y004460D02*
X006112Y004460D01*
X006048Y004301D02*
X000660Y004301D01*
X000660Y004143D02*
X005985Y004143D01*
X005922Y003984D02*
X000660Y003984D01*
X000660Y003826D02*
X005858Y003826D01*
X005795Y003667D02*
X000660Y003667D01*
X000660Y003509D02*
X005731Y003509D01*
X005668Y003350D02*
X000660Y003350D01*
X000660Y003192D02*
X005605Y003192D01*
X005541Y003033D02*
X000660Y003033D01*
X000660Y002875D02*
X005478Y002875D01*
X005414Y002716D02*
X000660Y002716D01*
X000660Y002558D02*
X005351Y002558D01*
X005288Y002399D02*
X000660Y002399D01*
X000660Y002241D02*
X005224Y002241D01*
X005161Y002082D02*
X000660Y002082D01*
X000660Y001924D02*
X005097Y001924D01*
X005034Y001765D02*
X000660Y001765D01*
X000660Y001607D02*
X004971Y001607D01*
X004907Y001448D02*
X000660Y001448D01*
X000660Y001290D02*
X004844Y001290D01*
X004780Y001131D02*
X000660Y001131D01*
X000660Y000973D02*
X004717Y000973D01*
X004654Y000814D02*
X000660Y000814D01*
X007680Y000680D02*
X007680Y008393D01*
X005932Y008393D01*
X007940Y008105D02*
X008658Y008105D01*
X009414Y007154D02*
X009450Y007154D01*
X009450Y006996D02*
X009414Y006996D01*
X009414Y006837D02*
X009450Y006837D01*
X009450Y006679D02*
X009414Y006679D01*
X009414Y006520D02*
X009450Y006520D01*
X009620Y010007D02*
X009740Y010007D01*
X009797Y010166D02*
X009563Y010166D01*
X009403Y010324D02*
X009957Y010324D01*
X008674Y011275D02*
X007940Y011275D01*
X007940Y011434D02*
X008392Y011434D01*
X008307Y011592D02*
X007940Y011592D01*
X007940Y011751D02*
X008302Y011751D01*
X008374Y011909D02*
X007940Y011909D01*
X007680Y010967D02*
X007680Y013847D01*
X008210Y013970D02*
X008300Y013970D01*
X008300Y014128D02*
X008210Y014128D01*
X008210Y014287D02*
X008300Y014287D01*
X008300Y014445D02*
X008210Y014445D01*
X008210Y014604D02*
X008300Y014604D01*
X007150Y014604D02*
X007060Y014604D01*
X007060Y014445D02*
X007150Y014445D01*
X007150Y014287D02*
X007060Y014287D01*
X007060Y014128D02*
X007150Y014128D01*
X007150Y013970D02*
X007060Y013970D01*
X006000Y013494D02*
X005675Y013494D01*
X005675Y013336D02*
X006000Y013336D01*
X005180Y013306D02*
X005928Y012467D01*
X004685Y013019D02*
X000660Y013019D01*
X000660Y013177D02*
X004685Y013177D01*
X004685Y013336D02*
X000660Y013336D01*
X000660Y013494D02*
X004685Y013494D01*
X004701Y013653D02*
X000660Y013653D01*
X000660Y013811D02*
X004685Y013811D01*
X004685Y013970D02*
X000660Y013970D01*
X000660Y014128D02*
X004685Y014128D01*
X004685Y014287D02*
X000660Y014287D01*
X000660Y014445D02*
X004746Y014445D01*
X005132Y014445D02*
X005228Y014445D01*
X005228Y014287D02*
X005132Y014287D01*
X005132Y014128D02*
X005228Y014128D01*
M02*
