G75*
%MOIN*%
%OFA0B0*%
%FSLAX24Y24*%
%IPPOS*%
%LPD*%
%AMOC8*
5,1,8,0,0,1.08239X$1,22.5*
%
%ADD10R,0.0700X0.1650*%
%ADD11C,0.0520*%
%ADD12C,0.0396*%
%ADD13C,0.0160*%
D10*
X006530Y013847D03*
X008830Y013847D03*
D11*
X009180Y009940D02*
X009180Y009420D01*
X008180Y009420D02*
X008180Y009940D01*
X007180Y009940D02*
X007180Y009420D01*
X006180Y009420D02*
X006180Y009940D01*
X005180Y009940D02*
X005180Y009420D01*
X004180Y009420D02*
X004180Y009940D01*
X010180Y009940D02*
X010180Y009420D01*
X011180Y009420D02*
X011180Y009940D01*
D12*
X008680Y011680D03*
X006680Y011680D03*
X001180Y014180D03*
X001180Y007680D03*
X001180Y001180D03*
X014180Y001180D03*
X014180Y007680D03*
X014180Y014180D03*
D13*
X000660Y014700D02*
X000660Y000660D01*
X014700Y000660D01*
X014700Y014700D01*
X009359Y014700D01*
X009360Y014696D01*
X009360Y013927D01*
X008910Y013927D01*
X008910Y013767D01*
X008910Y012842D01*
X009204Y012842D01*
X009249Y012854D01*
X009291Y012878D01*
X009324Y012912D01*
X009348Y012953D01*
X009360Y012998D01*
X009360Y013767D01*
X008910Y013767D01*
X008750Y013767D01*
X008750Y012842D01*
X008456Y012842D01*
X008411Y012854D01*
X008369Y012878D01*
X008336Y012912D01*
X008312Y012953D01*
X008300Y012998D01*
X008300Y013767D01*
X008750Y013767D01*
X008750Y013927D01*
X008300Y013927D01*
X008300Y014696D01*
X008301Y014700D01*
X007059Y014700D01*
X007060Y014696D01*
X007060Y013927D01*
X006610Y013927D01*
X006610Y013767D01*
X006610Y012842D01*
X006904Y012842D01*
X006949Y012854D01*
X006991Y012878D01*
X007024Y012912D01*
X007048Y012953D01*
X007060Y012998D01*
X007060Y013767D01*
X006610Y013767D01*
X006450Y013767D01*
X006450Y012842D01*
X006156Y012842D01*
X006111Y012854D01*
X006069Y012878D01*
X006036Y012912D01*
X006012Y012953D01*
X006000Y012998D01*
X006000Y013767D01*
X006450Y013767D01*
X006450Y013927D01*
X006000Y013927D01*
X006000Y014696D01*
X006001Y014700D01*
X000660Y014700D01*
X000660Y014604D02*
X006000Y014604D01*
X006000Y014445D02*
X000660Y014445D01*
X000660Y014287D02*
X006000Y014287D01*
X006000Y014128D02*
X000660Y014128D01*
X000660Y013970D02*
X006000Y013970D01*
X006000Y013653D02*
X000660Y013653D01*
X000660Y013811D02*
X006450Y013811D01*
X006450Y013653D02*
X006610Y013653D01*
X006610Y013811D02*
X008750Y013811D01*
X008750Y013653D02*
X008910Y013653D01*
X008910Y013811D02*
X014700Y013811D01*
X014700Y013653D02*
X009360Y013653D01*
X009360Y013494D02*
X014700Y013494D01*
X014700Y013336D02*
X009360Y013336D01*
X009360Y013177D02*
X014700Y013177D01*
X014700Y013019D02*
X009360Y013019D01*
X009259Y012860D02*
X014700Y012860D01*
X014700Y012702D02*
X000660Y012702D01*
X000660Y012860D02*
X006101Y012860D01*
X006000Y013019D02*
X000660Y013019D01*
X000660Y013177D02*
X006000Y013177D01*
X006000Y013336D02*
X000660Y013336D01*
X000660Y013494D02*
X006000Y013494D01*
X006450Y013494D02*
X006610Y013494D01*
X006610Y013336D02*
X006450Y013336D01*
X006450Y013177D02*
X006610Y013177D01*
X006610Y013019D02*
X006450Y013019D01*
X006450Y012860D02*
X006610Y012860D01*
X006959Y012860D02*
X008401Y012860D01*
X008300Y013019D02*
X007060Y013019D01*
X007060Y013177D02*
X008300Y013177D01*
X008300Y013336D02*
X007060Y013336D01*
X007060Y013494D02*
X008300Y013494D01*
X008300Y013653D02*
X007060Y013653D01*
X007060Y013970D02*
X008300Y013970D01*
X008300Y014128D02*
X007060Y014128D01*
X007060Y014287D02*
X008300Y014287D01*
X008300Y014445D02*
X007060Y014445D01*
X007060Y014604D02*
X008300Y014604D01*
X009360Y014604D02*
X014700Y014604D01*
X014700Y014445D02*
X009360Y014445D01*
X009360Y014287D02*
X014700Y014287D01*
X014700Y014128D02*
X009360Y014128D01*
X009360Y013970D02*
X014700Y013970D01*
X014700Y012543D02*
X000660Y012543D01*
X000660Y012385D02*
X014700Y012385D01*
X014700Y012226D02*
X000660Y012226D01*
X000660Y012068D02*
X014700Y012068D01*
X014700Y011909D02*
X008957Y011909D01*
X008984Y011883D02*
X008883Y011984D01*
X008751Y012038D01*
X008609Y012038D01*
X008477Y011984D01*
X008414Y011920D01*
X006946Y011920D01*
X006883Y011984D01*
X006751Y012038D01*
X006609Y012038D01*
X006477Y011984D01*
X006376Y011883D01*
X006322Y011751D01*
X006322Y011609D01*
X006376Y011477D01*
X006477Y011376D01*
X006609Y011322D01*
X006751Y011322D01*
X006883Y011376D01*
X006946Y011440D01*
X008414Y011440D01*
X008477Y011376D01*
X008609Y011322D01*
X008751Y011322D01*
X008883Y011376D01*
X008984Y011477D01*
X009038Y011609D01*
X009038Y011751D01*
X008984Y011883D01*
X009038Y011751D02*
X014700Y011751D01*
X014700Y011592D02*
X009031Y011592D01*
X008940Y011434D02*
X014700Y011434D01*
X014700Y011275D02*
X000660Y011275D01*
X000660Y011117D02*
X014700Y011117D01*
X014700Y010958D02*
X000660Y010958D01*
X000660Y010800D02*
X014700Y010800D01*
X014700Y010641D02*
X000660Y010641D01*
X000660Y010483D02*
X014700Y010483D01*
X014700Y010324D02*
X011396Y010324D01*
X011411Y010316D02*
X011349Y010348D01*
X011283Y010369D01*
X011215Y010380D01*
X011180Y010380D01*
X011180Y009680D01*
X011620Y009680D01*
X011620Y009975D01*
X011609Y010043D01*
X011588Y010109D01*
X011556Y010171D01*
X011516Y010227D01*
X011467Y010276D01*
X011411Y010316D01*
X011559Y010166D02*
X014700Y010166D01*
X014700Y010007D02*
X011615Y010007D01*
X011620Y009849D02*
X014700Y009849D01*
X014700Y009690D02*
X011620Y009690D01*
X011620Y009680D02*
X011180Y009680D01*
X011180Y009680D01*
X011180Y009680D01*
X011180Y008980D01*
X011215Y008980D01*
X011283Y008991D01*
X011349Y009012D01*
X011411Y009044D01*
X011467Y009084D01*
X011516Y009133D01*
X011556Y009189D01*
X011588Y009251D01*
X011609Y009317D01*
X011620Y009385D01*
X011620Y009680D01*
X011620Y009532D02*
X014700Y009532D01*
X014700Y009373D02*
X011618Y009373D01*
X011569Y009215D02*
X014700Y009215D01*
X014700Y009056D02*
X011428Y009056D01*
X011180Y009056D02*
X011180Y009056D01*
X011180Y008980D02*
X011180Y009680D01*
X011180Y009680D01*
X011180Y009680D01*
X010740Y009680D01*
X010740Y009975D01*
X010751Y010043D01*
X010772Y010109D01*
X010804Y010171D01*
X010844Y010227D01*
X010893Y010276D01*
X010949Y010316D01*
X011011Y010348D01*
X011077Y010369D01*
X011145Y010380D01*
X011180Y010380D01*
X011180Y009680D01*
X010740Y009680D01*
X010740Y009385D01*
X010751Y009317D01*
X010772Y009251D01*
X010804Y009189D01*
X010844Y009133D01*
X010893Y009084D01*
X010949Y009044D01*
X011011Y009012D01*
X011077Y008991D01*
X011145Y008980D01*
X011180Y008980D01*
X011180Y009215D02*
X011180Y009215D01*
X010932Y009056D02*
X010399Y009056D01*
X010418Y009064D02*
X010536Y009182D01*
X010600Y009336D01*
X010600Y010024D01*
X010536Y010178D01*
X010418Y010296D01*
X010264Y010360D01*
X010096Y010360D01*
X009942Y010296D01*
X009824Y010178D01*
X009760Y010024D01*
X009760Y009336D01*
X009824Y009182D01*
X009942Y009064D01*
X010096Y009000D01*
X010264Y009000D01*
X010418Y009064D01*
X010549Y009215D02*
X010791Y009215D01*
X010742Y009373D02*
X010600Y009373D01*
X010600Y009532D02*
X010740Y009532D01*
X010740Y009690D02*
X010600Y009690D01*
X010600Y009849D02*
X010740Y009849D01*
X010745Y010007D02*
X010600Y010007D01*
X010541Y010166D02*
X010801Y010166D01*
X010964Y010324D02*
X010350Y010324D01*
X010010Y010324D02*
X009350Y010324D01*
X009418Y010296D02*
X009264Y010360D01*
X009096Y010360D01*
X008942Y010296D01*
X008824Y010178D01*
X008760Y010024D01*
X008760Y009336D01*
X008824Y009182D01*
X008942Y009064D01*
X009096Y009000D01*
X009264Y009000D01*
X009418Y009064D01*
X009536Y009182D01*
X009600Y009336D01*
X009600Y010024D01*
X009536Y010178D01*
X009418Y010296D01*
X009541Y010166D02*
X009819Y010166D01*
X009760Y010007D02*
X009600Y010007D01*
X009600Y009849D02*
X009760Y009849D01*
X009760Y009690D02*
X009600Y009690D01*
X009600Y009532D02*
X009760Y009532D01*
X009760Y009373D02*
X009600Y009373D01*
X009549Y009215D02*
X009811Y009215D01*
X009961Y009056D02*
X009399Y009056D01*
X008961Y009056D02*
X008399Y009056D01*
X008418Y009064D02*
X008536Y009182D01*
X008600Y009336D01*
X008600Y010024D01*
X008536Y010178D01*
X008418Y010296D01*
X008264Y010360D01*
X008096Y010360D01*
X007942Y010296D01*
X007824Y010178D01*
X007760Y010024D01*
X007760Y009336D01*
X007824Y009182D01*
X007942Y009064D01*
X008096Y009000D01*
X008264Y009000D01*
X008418Y009064D01*
X008549Y009215D02*
X008811Y009215D01*
X008760Y009373D02*
X008600Y009373D01*
X008600Y009532D02*
X008760Y009532D01*
X008760Y009690D02*
X008600Y009690D01*
X008600Y009849D02*
X008760Y009849D01*
X008760Y010007D02*
X008600Y010007D01*
X008541Y010166D02*
X008819Y010166D01*
X009010Y010324D02*
X008350Y010324D01*
X008010Y010324D02*
X007396Y010324D01*
X007411Y010316D02*
X007349Y010348D01*
X007283Y010369D01*
X007215Y010380D01*
X007180Y010380D01*
X007180Y009680D01*
X007620Y009680D01*
X007620Y009975D01*
X007609Y010043D01*
X007588Y010109D01*
X007556Y010171D01*
X007516Y010227D01*
X007467Y010276D01*
X007411Y010316D01*
X007559Y010166D02*
X007819Y010166D01*
X007760Y010007D02*
X007615Y010007D01*
X007620Y009849D02*
X007760Y009849D01*
X007760Y009690D02*
X007620Y009690D01*
X007620Y009680D02*
X007180Y009680D01*
X007180Y009680D01*
X007180Y009680D01*
X007180Y008980D01*
X007215Y008980D01*
X007283Y008991D01*
X007349Y009012D01*
X007411Y009044D01*
X007467Y009084D01*
X007516Y009133D01*
X007556Y009189D01*
X007588Y009251D01*
X007609Y009317D01*
X007620Y009385D01*
X007620Y009680D01*
X007620Y009532D02*
X007760Y009532D01*
X007760Y009373D02*
X007618Y009373D01*
X007569Y009215D02*
X007811Y009215D01*
X007961Y009056D02*
X007428Y009056D01*
X007180Y009056D02*
X007180Y009056D01*
X007180Y008980D02*
X007180Y009680D01*
X007180Y009680D01*
X007180Y009680D01*
X006740Y009680D01*
X006740Y009975D01*
X006751Y010043D01*
X006772Y010109D01*
X006804Y010171D01*
X006844Y010227D01*
X006893Y010276D01*
X006949Y010316D01*
X007011Y010348D01*
X007077Y010369D01*
X007145Y010380D01*
X007180Y010380D01*
X007180Y009680D01*
X006740Y009680D01*
X006740Y009385D01*
X006751Y009317D01*
X006772Y009251D01*
X006804Y009189D01*
X006844Y009133D01*
X006893Y009084D01*
X006949Y009044D01*
X007011Y009012D01*
X007077Y008991D01*
X007145Y008980D01*
X007180Y008980D01*
X007180Y009215D02*
X007180Y009215D01*
X006932Y009056D02*
X006399Y009056D01*
X006418Y009064D02*
X006536Y009182D01*
X006600Y009336D01*
X006600Y010024D01*
X006536Y010178D01*
X006418Y010296D01*
X006264Y010360D01*
X006096Y010360D01*
X005942Y010296D01*
X005824Y010178D01*
X005760Y010024D01*
X005760Y009336D01*
X005824Y009182D01*
X005942Y009064D01*
X006096Y009000D01*
X006264Y009000D01*
X006418Y009064D01*
X006549Y009215D02*
X006791Y009215D01*
X006742Y009373D02*
X006600Y009373D01*
X006600Y009532D02*
X006740Y009532D01*
X006740Y009690D02*
X006600Y009690D01*
X006600Y009849D02*
X006740Y009849D01*
X006745Y010007D02*
X006600Y010007D01*
X006541Y010166D02*
X006801Y010166D01*
X006964Y010324D02*
X006350Y010324D01*
X006010Y010324D02*
X005350Y010324D01*
X005418Y010296D02*
X005264Y010360D01*
X005096Y010360D01*
X004942Y010296D01*
X004824Y010178D01*
X004760Y010024D01*
X004760Y009336D01*
X004824Y009182D01*
X004942Y009064D01*
X005096Y009000D01*
X005264Y009000D01*
X005418Y009064D01*
X005536Y009182D01*
X005600Y009336D01*
X005600Y010024D01*
X005536Y010178D01*
X005418Y010296D01*
X005541Y010166D02*
X005819Y010166D01*
X005760Y010007D02*
X005600Y010007D01*
X005600Y009849D02*
X005760Y009849D01*
X005760Y009690D02*
X005600Y009690D01*
X005600Y009532D02*
X005760Y009532D01*
X005760Y009373D02*
X005600Y009373D01*
X005549Y009215D02*
X005811Y009215D01*
X005961Y009056D02*
X005399Y009056D01*
X004961Y009056D02*
X004428Y009056D01*
X004411Y009044D02*
X004467Y009084D01*
X004516Y009133D01*
X004556Y009189D01*
X004588Y009251D01*
X004609Y009317D01*
X004620Y009385D01*
X004620Y009680D01*
X004620Y009975D01*
X004609Y010043D01*
X004588Y010109D01*
X004556Y010171D01*
X004516Y010227D01*
X004467Y010276D01*
X004411Y010316D01*
X004349Y010348D01*
X004283Y010369D01*
X004215Y010380D01*
X004180Y010380D01*
X004180Y009680D01*
X004620Y009680D01*
X004180Y009680D01*
X004180Y009680D01*
X004180Y009680D01*
X004180Y008980D01*
X004215Y008980D01*
X004283Y008991D01*
X004349Y009012D01*
X004411Y009044D01*
X004180Y009056D02*
X004180Y009056D01*
X004180Y008980D02*
X004180Y009680D01*
X004180Y009680D01*
X004180Y009680D01*
X003740Y009680D01*
X003740Y009975D01*
X003751Y010043D01*
X003772Y010109D01*
X003804Y010171D01*
X003844Y010227D01*
X003893Y010276D01*
X003949Y010316D01*
X004011Y010348D01*
X004077Y010369D01*
X004145Y010380D01*
X004180Y010380D01*
X004180Y009680D01*
X003740Y009680D01*
X003740Y009385D01*
X003751Y009317D01*
X003772Y009251D01*
X003804Y009189D01*
X003844Y009133D01*
X003893Y009084D01*
X003949Y009044D01*
X004011Y009012D01*
X004077Y008991D01*
X004145Y008980D01*
X004180Y008980D01*
X004180Y009215D02*
X004180Y009215D01*
X004180Y009373D02*
X004180Y009373D01*
X004180Y009532D02*
X004180Y009532D01*
X004180Y009690D02*
X004180Y009690D01*
X004180Y009849D02*
X004180Y009849D01*
X004180Y010007D02*
X004180Y010007D01*
X004180Y010166D02*
X004180Y010166D01*
X004180Y010324D02*
X004180Y010324D01*
X004396Y010324D02*
X005010Y010324D01*
X004819Y010166D02*
X004559Y010166D01*
X004615Y010007D02*
X004760Y010007D01*
X004760Y009849D02*
X004620Y009849D01*
X004620Y009690D02*
X004760Y009690D01*
X004760Y009532D02*
X004620Y009532D01*
X004618Y009373D02*
X004760Y009373D01*
X004811Y009215D02*
X004569Y009215D01*
X003932Y009056D02*
X000660Y009056D01*
X000660Y008898D02*
X014700Y008898D01*
X014700Y008739D02*
X000660Y008739D01*
X000660Y008581D02*
X014700Y008581D01*
X014700Y008422D02*
X000660Y008422D01*
X000660Y008264D02*
X014700Y008264D01*
X014700Y008105D02*
X000660Y008105D01*
X000660Y007947D02*
X014700Y007947D01*
X014700Y007788D02*
X000660Y007788D01*
X000660Y007630D02*
X014700Y007630D01*
X014700Y007471D02*
X000660Y007471D01*
X000660Y007313D02*
X014700Y007313D01*
X014700Y007154D02*
X000660Y007154D01*
X000660Y006996D02*
X014700Y006996D01*
X014700Y006837D02*
X000660Y006837D01*
X000660Y006679D02*
X014700Y006679D01*
X014700Y006520D02*
X000660Y006520D01*
X000660Y006362D02*
X014700Y006362D01*
X014700Y006203D02*
X000660Y006203D01*
X000660Y006045D02*
X014700Y006045D01*
X014700Y005886D02*
X000660Y005886D01*
X000660Y005728D02*
X014700Y005728D01*
X014700Y005569D02*
X000660Y005569D01*
X000660Y005411D02*
X014700Y005411D01*
X014700Y005252D02*
X000660Y005252D01*
X000660Y005094D02*
X014700Y005094D01*
X014700Y004935D02*
X000660Y004935D01*
X000660Y004777D02*
X014700Y004777D01*
X014700Y004618D02*
X000660Y004618D01*
X000660Y004460D02*
X014700Y004460D01*
X014700Y004301D02*
X000660Y004301D01*
X000660Y004143D02*
X014700Y004143D01*
X014700Y003984D02*
X000660Y003984D01*
X000660Y003826D02*
X014700Y003826D01*
X014700Y003667D02*
X000660Y003667D01*
X000660Y003509D02*
X014700Y003509D01*
X014700Y003350D02*
X000660Y003350D01*
X000660Y003192D02*
X014700Y003192D01*
X014700Y003033D02*
X000660Y003033D01*
X000660Y002875D02*
X014700Y002875D01*
X014700Y002716D02*
X000660Y002716D01*
X000660Y002558D02*
X014700Y002558D01*
X014700Y002399D02*
X000660Y002399D01*
X000660Y002241D02*
X014700Y002241D01*
X014700Y002082D02*
X000660Y002082D01*
X000660Y001924D02*
X014700Y001924D01*
X014700Y001765D02*
X000660Y001765D01*
X000660Y001607D02*
X014700Y001607D01*
X014700Y001448D02*
X000660Y001448D01*
X000660Y001290D02*
X014700Y001290D01*
X014700Y001131D02*
X000660Y001131D01*
X000660Y000973D02*
X014700Y000973D01*
X014700Y000814D02*
X000660Y000814D01*
X000660Y009215D02*
X003791Y009215D01*
X003742Y009373D02*
X000660Y009373D01*
X000660Y009532D02*
X003740Y009532D01*
X003740Y009690D02*
X000660Y009690D01*
X000660Y009849D02*
X003740Y009849D01*
X003745Y010007D02*
X000660Y010007D01*
X000660Y010166D02*
X003801Y010166D01*
X003964Y010324D02*
X000660Y010324D01*
X000660Y011434D02*
X006420Y011434D01*
X006329Y011592D02*
X000660Y011592D01*
X000660Y011751D02*
X006322Y011751D01*
X006403Y011909D02*
X000660Y011909D01*
X006680Y011680D02*
X008680Y011680D01*
X008420Y011434D02*
X006940Y011434D01*
X007180Y010324D02*
X007180Y010324D01*
X007180Y010166D02*
X007180Y010166D01*
X007180Y010007D02*
X007180Y010007D01*
X007180Y009849D02*
X007180Y009849D01*
X007180Y009690D02*
X007180Y009690D01*
X007180Y009532D02*
X007180Y009532D01*
X007180Y009373D02*
X007180Y009373D01*
X008750Y012860D02*
X008910Y012860D01*
X008910Y013019D02*
X008750Y013019D01*
X008750Y013177D02*
X008910Y013177D01*
X008910Y013336D02*
X008750Y013336D01*
X008750Y013494D02*
X008910Y013494D01*
X011180Y010324D02*
X011180Y010324D01*
X011180Y010166D02*
X011180Y010166D01*
X011180Y010007D02*
X011180Y010007D01*
X011180Y009849D02*
X011180Y009849D01*
X011180Y009690D02*
X011180Y009690D01*
X011180Y009532D02*
X011180Y009532D01*
X011180Y009373D02*
X011180Y009373D01*
M02*
